# xmcd
#
# Track frame offsets:
#	150
#	38897
#	75397
#	115917
#	168285
#	196980
#	204687
#	216385
#	241592
#	255102
#
# Disc length: 3776 seconds
#
# Revision: 1
# Processed by: cddbd v1.4PL0 Copyright (c) Steve Scherf et al.
# Submitted via: audiograbber 1.80
#
DISCID=7b0ebe0a
DTITLE=Chris Cain - Live at the Rep
DYEAR=1900
DGENRE=
TTITLE0=Good Evening Baby
TTITLE1=Me and My Baby
TTITLE2=Help Me
TTITLE3=My Nest is Still Warm
TTITLE4=Drinking Straight Tequila
TTITLE5=Jaguar's Theme
TTITLE6=Thunder Knocking on the Door
TTITLE7=I do, I Will, I Can
TTITLE8=Back on Top Of My World
TTITLE9=Helping Hand
EXTD=Recorded at San Jose Repertory Theater June 26, 1998
EXTT0=
EXTT1=
EXTT2=
EXTT3=
EXTT4=
EXTT5=
EXTT6=
EXTT7=
EXTT8=
EXTT9=
PLAYORDER=
